<?xml version="1.0" encoding="iso-8859-1"?>
<svg version="1.1" id="Layer_1" xmlns="http://www.w3.org/2000/svg" xmlns:xlink="http://www.w3.org/1999/xlink" x="0px" y="0px"
	viewBox="0 0 7500 5000" style="enable-background:new 0 0 7500 5000;" xml:space="preserve">

  <style>
    path { fill: #010202; }
    @media (prefers-color-scheme: dark) {
      path { fill: #FAF7F2; }
    }
  </style>

  <rect style="fill:none;" width="7500" height="5000"/>
  <g id="Guide"></g>
  <g>
    <path d="M2449.812,4450.61c-49.945-33.295-52.026-54.093-45.783-335.056
		c6.244-353.753,27.054-645.115,74.918-1036.363c10.406-93.655,18.73-172.71,16.649-174.81c-2.081,0-139.432,64.525-305.916,145.681
		c-563.967,274.697-763.748,362.119-1040.53,453.674c-251.808,81.156-403.725,101.987-480.724,64.525
		c-43.703-22.897-74.918-70.757-74.918-118.618c0-27.063,6.243-35.396,41.621-70.757c52.026-49.96,181.052-126.95,347.538-206.04
		c268.456-129.016,434.941-197.707,688.83-283.029l164.403-56.193l35.379-99.887c35.378-101.953,147.755-370.418,253.89-607.653
		c31.216-72.857,56.188-133.182,56.188-135.282c-2.081-2.066-47.865,6.232-101.972,16.665
		c-495.292,101.953-1098.799,328.79-1475.471,555.627c-145.673,89.488-226.836,149.847-291.348,218.504
		c-39.541,41.628-85.323,114.451-85.323,133.182c0,2.1,33.297,8.332,72.836,14.599c116.54,18.697,401.645,12.465,509.86-10.432
		c139.431-27.03,145.675-29.129,164.403-39.528c24.973-12.499,35.379-10.398,35.379,6.232c0,33.296-76.999,77.023-212.268,118.618
		c-149.836,45.794-199.782,54.126-341.295,54.126c-118.62,0-137.35-2.1-170.646-18.731
		c-54.107-24.963-99.891-66.591-118.621-110.285c-31.216-72.857-2.081-122.784,137.351-226.837
		c233.079-176.91,568.128-343.388,1009.313-505.7c264.295-97.821,584.778-189.375,809.532-233.103
		c43.702-8.299,79.081-16.631,81.162-18.731c2.081-2.066,33.297-66.591,68.674-145.647
		c81.161-172.744,285.105-580.624,357.942-713.806c29.135-56.193,97.81-172.744,149.836-258.066
		c54.108-87.388,110.296-183.143,129.026-214.338c16.648-29.129,39.54-60.359,47.865-70.757
		c18.729-14.565,18.729-14.565,37.458,8.332c33.297,37.462,29.135,62.425-41.622,349.621
		c-20.81,83.222-62.431,266.365-95.728,405.779c-31.216,139.449-60.351,260.132-62.432,266.399
		c-4.162,12.465,16.649,6.232,81.161-24.997c424.537-199.773,1096.719-374.584,1550.389-401.647
		c174.81-10.398,270.538-4.132,347.537,27.063c56.189,20.831,70.756,35.396,91.567,81.156
		c54.107,118.618-83.242,301.76-397.482,528.597c-195.62,143.581-549.399,360.019-909.423,559.793
		c-83.243,45.794-149.836,83.256-147.755,85.322c0,0,87.404-14.565,191.457-31.196
		c597.264-104.053,813.695-133.182,1481.714-195.607c940.639-89.488,1637.794-89.488,1989.493-2.1
		c116.539,31.229,220.592,89.488,253.889,143.581c33.297,52.026,14.568,129.05-37.459,149.847
		c-54.107,22.897-83.242-8.333-41.622-45.794c12.487-12.465,20.811-22.863,20.811-27.029c0-10.399-95.728-49.96-199.781-81.156
		c-374.591-114.485-807.451-156.079-1385.986-135.282c-360.023,14.565-728.371,41.628-1019.719,76.99
		c-534.832,64.525-923.99,122.784-1261.121,191.475l-126.945,24.963l-168.566,89.488
		c-93.647,49.927-247.646,131.116-343.375,178.977l-170.646,89.488l-6.244,43.694c-2.081,22.897-10.405,104.053-16.648,181.043
		c-6.244,74.923-16.649,176.91-20.811,224.771c-18.73,206.006-37.46,884.45-22.892,876.118c4.162-2.066,12.486,10.398,20.811,27.063
		c14.567,37.462,10.405,156.08-8.325,220.571c-10.405,31.229-14.567,37.462-35.378,39.562
		C2487.271,4469.341,2468.542,4463.109,2449.812,4450.61L2449.812,4450.61z M868.207,3422.579
		c110.297-22.897,285.105-76.99,447.428-141.515c54.109-20.831,149.836-58.259,212.269-83.256
		c189.376-74.924,493.211-210.172,822.018-366.252c181.052-87.422,168.566-76.99,172.728-122.784
		c2.081-20.831,2.081-37.462-2.081-37.462c-8.325,0-376.672,104.053-470.319,135.282l-87.405,27.029l-14.567,52.027
		c-6.243,29.129-14.568,54.126-16.649,58.293c-8.324,8.298-41.62-10.432-68.674-37.462l-29.136-29.129l-64.512,22.863
		c-79.08,27.063-355.861,137.349-480.725,191.475c-237.241,99.887-499.454,251.8-574.372,328.79l-33.297,33.296l41.622-4.132
		C745.425,3445.476,812.018,3432.978,868.207,3422.579L868.207,3422.579z M2148.058,2733.737
		c81.162-24.963,197.701-58.259,260.132-74.924c62.432-16.631,116.54-33.295,118.621-37.462
		c4.162-4.132,18.73-85.322,31.216-181.043c14.568-95.72,35.379-239.302,52.026-320.491c14.568-81.156,22.892-151.913,18.73-153.979
		c-8.324-8.332-245.565-8.332-305.916,0l-45.784,6.232l-39.54,93.655c-87.404,206.006-243.484,626.384-258.051,695.075
		c-4.162,24.963-4.162,29.129,8.324,22.897C1996.141,2781.597,2066.897,2758.7,2148.058,2733.737L2148.058,2733.737z
		 M2730.755,2650.515c56.188-27.063,99.891-49.96,99.891-52.027c-6.244-4.166-189.377,37.428-208.106,47.86
		c-16.649,10.398-20.811,62.425-4.162,56.193C2624.621,2698.375,2674.567,2675.478,2730.755,2650.515L2730.755,2650.515z
		 M2884.753,2538.129l137.35-31.229l295.51-149.813c859.477-437.043,1346.446-755.434,1490.039-971.872
		c52.026-81.156,49.945-124.85-8.325-154.013c-64.512-31.196-114.458-37.428-305.915-37.428c-185.215,0-239.322,6.232-478.644,45.76
		c-393.32,68.691-844.909,210.206-1161.23,366.285l-74.918,37.462l-22.892,104.053c-12.487,56.159-22.892,108.185-22.892,112.351
		c0,16.665,164.403,29.163,484.887,37.462c387.076,8.332,476.562,18.731,495.292,54.126
		c18.729,31.196-12.487,60.325-114.459,114.452c-189.376,99.887-561.885,226.837-809.532,276.763
		c-97.81,18.731-112.377-4.132-64.512-108.185c14.567-31.229,31.216-81.19,39.54-114.485c14.568-66.591,8.324-95.721-31.216-118.618
		l-22.892-12.465l-10.405,43.694c-12.487,60.359-45.783,280.929-62.432,405.813c-6.243,56.193-14.567,116.518-16.648,133.182
		l-4.163,31.196l64.513-16.631C2716.187,2577.657,2807.754,2556.86,2884.753,2538.129L2884.753,2538.129z M2845.213,2238.435
		c37.46-10.398,108.215-27.029,160.241-37.428c52.026-12.499,164.404-41.628,249.727-66.625
		c280.943-81.156,447.427-145.647,441.185-170.644c-4.162-24.963-72.837-31.196-443.265-37.462
		c-201.863-2.066-401.645-8.298-445.347-12.465c-58.269-6.266-81.161-4.166-85.323,2.066c-10.406,16.665-6.244,27.063,18.729,39.562
		c12.487,8.299,35.379,31.196,47.865,49.927c33.297,52.026,29.135,108.219-18.73,235.169
		C2764.052,2257.166,2766.133,2257.166,2845.213,2238.435L2845.213,2238.435z M2543.46,1917.978
		c95.728,0,106.134-2.1,106.134-14.565c0-14.565-6.244-16.665-37.459-14.565c-2.081,0-14.567-6.266-29.135-12.499
		c-31.216-16.665-54.107-62.425-47.865-89.488c8.325-27.063,66.594-85.322,126.945-124.85
		c56.188-35.396,39.541,12.465,137.35-393.349c33.298-137.349,81.162-330.89,106.135-428.677
		c22.891-97.821,43.702-178.977,41.621-181.077c-2.081-2.066-31.216,45.794-66.593,104.053
		c-197.701,332.99-355.861,640.982-534.833,1048.862l-54.107,118.618l72.837-6.232
		C2404.028,1920.044,2485.189,1917.978,2543.46,1917.978L2543.46,1917.978z M2662.08,1845.12
		c2.081-6.232,10.406-43.694,20.811-85.322l14.568-72.823l-20.811,14.565c-87.405,54.093-131.107,101.953-112.378,120.684
		c8.325,10.432,66.594,31.229,83.243,31.229C2653.756,1855.519,2659.999,1849.286,2662.08,1845.12L2662.08,1845.12z"/>
  </g>
</svg>